<svg width="1920" height="1920" viewBox="0 0 1920 1920" fill="none" xmlns="http://www.w3.org/2000/svg">
<rect width="1920" height="1920" fill="white"/>
<path d="M1437.4 1010.6C1396.04 943.346 1382.6 844.387 1400.32 768.65C1416.28 694.991 1495.11 638.024 1561 594.534C1616.93 556.754 1690.78 508.847 1679.44 511.437C1621.76 538.897 1439.74 674.284 1343.14 663.466C1207.91 658.216 1202.99 516.252 1244.96 415.184C1267.76 353.375 1334.89 216.31 1337.35 198.114C1274.08 289.961 1230.06 443.526 1126.89 500.86C1031.95 546.52 992.943 431.841 988.95 350.184C983.241 272.598 988.667 181.812 982.473 109.747C981.72 105.357 980.99 108.463 980.539 110.874C977.723 125.533 974.013 200.334 969.767 284.806C966.592 358.366 953.267 454.78 906.22 503.145C863.021 550.582 796.305 557.086 739.667 528.499C659.864 492.113 595.945 382.42 549.697 312.071C523.216 272.773 505.332 243.094 500.88 240.66C544.24 323.856 649.007 455.406 654.242 560.793C661.102 656.026 603.668 751.343 515.764 790.313C396.086 843.527 257.657 788.134 139.733 777.068C133.386 776.598 129.749 776.762 129.156 777.622C129.519 780.14 133.551 780.748 136.715 782.422C210.071 813.576 420.684 837.425 477.861 919.88C570.247 1029.84 530.927 1199.52 420.481 1282.71C404.692 1301.91 192.062 1438.24 249.19 1413.47C288.354 1396.05 400.156 1323.22 460.333 1295.48C645.079 1213.02 711.401 1350.23 659.653 1514.77C657.735 1541.62 542.257 1785.01 592.762 1710.22C640.593 1637.66 684.786 1523.05 748.517 1463.55C869.318 1352.6 922.399 1542.57 924.26 1643.59C928.75 1701.42 923.725 1768.4 933.783 1812.05C934.734 1813.21 935.747 1811.9 936.798 1808.29C937.994 1804.19 939.239 1797.12 940.493 1787.46C955.873 1684.11 938.261 1549.25 1007.4 1462.9C1065.45 1388.46 1161.38 1405.31 1233.51 1463.76C1287.11 1505.64 1326.03 1568.9 1363 1624.17C1455.92 1762.64 1368.12 1614.18 1336 1561.75C1298.11 1497 1262.39 1437.83 1266.87 1369.86C1278.9 1278.13 1338.5 1183.5 1420.73 1136.25C1505.36 1085.01 1699.21 1148.07 1775.99 1156.41C1782.72 1157.43 1787.43 1158.01 1789.97 1158.1C1794.05 1158.28 1791.95 1157.24 1789.67 1156.34C1728.65 1132.57 1487.47 1101.94 1438.02 1011.52L1437.4 1010.6L1437.4 1010.6Z" fill="black"/>
</svg>
